<?xml version="1.0" encoding="UTF-8" standalone="no"?>
<!-- Created with Inkscape (http://www.inkscape.org/) -->

<svg
   xmlns:dc="http://purl.org/dc/elements/1.1/"
   xmlns:cc="http://creativecommons.org/ns#"
   xmlns:rdf="http://www.w3.org/1999/02/22-rdf-syntax-ns#"
   xmlns:svg="http://www.w3.org/2000/svg"
   xmlns="http://www.w3.org/2000/svg"
   xmlns:sodipodi="http://sodipodi.sourceforge.net/DTD/sodipodi-0.dtd"
   xmlns:inkscape="http://www.inkscape.org/namespaces/inkscape"
   width="295.10049mm"
   height="100.30215mm"
   viewBox="0 0 295.10049 100.30215"
   version="1.1"
   id="svg8"
   inkscape:version="0.92.4 (5da689c313, 2019-01-14)"
   sodipodi:docname="dafci.svg">
  <defs
     id="defs2" />
  <sodipodi:namedview
     id="base"
     pagecolor="#ffffff"
     bordercolor="#666666"
     borderopacity="1.0"
     inkscape:pageopacity="0.0"
     inkscape:pageshadow="2"
     inkscape:zoom="0.62983305"
     inkscape:cx="557.56967"
     inkscape:cy="-15.221557"
     inkscape:document-units="mm"
     inkscape:current-layer="layer1"
     showgrid="false"
     inkscape:window-width="862"
     inkscape:window-height="696"
     inkscape:window-x="-7"
     inkscape:window-y="0"
     inkscape:window-maximized="0"
     showguides="false"
     fit-margin-top="0"
     fit-margin-left="0"
     fit-margin-right="0"
     fit-margin-bottom="0" />
  <metadata
     id="metadata5">
    <rdf:RDF>
      <cc:Work
         rdf:about="">
        <dc:format>image/svg+xml</dc:format>
        <dc:type
           rdf:resource="http://purl.org/dc/dcmitype/StillImage" />
        <dc:title></dc:title>
      </cc:Work>
    </rdf:RDF>
  </metadata>
  <g
     inkscape:label="Capa 1"
     inkscape:groupmode="layer"
     id="layer1"
     transform="translate(-0.97635892,-87.670483)">
    <g
       aria-label="dafci"
       style="font-style:normal;font-variant:normal;font-weight:normal;font-stretch:normal;font-size:16.93333244px;line-height:1.25;font-family:'Almost Japanese';-inkscape-font-specification:'Almost Japanese';letter-spacing:0px;word-spacing:0px;fill:#000000;fill-opacity:1;stroke:none;stroke-width:0.26458332"
       id="text12"
       transform="matrix(4.8960598,0,0,7.516321,-468.63192,-867.27344)">
      <path
         d="m 105.15711,139.43511 -0.0331,-1.12448 q 1.35599,-0.008 2.29857,-0.0413 l -0.0413,-1.41386 q -1.03353,0.0248 -2.29857,0.0331 l -0.28112,-9.83919 -1.42214,0.0413 0.28112,9.80612 q -4.299477,-0.008 -5.440492,-0.29766 -0.413412,-0.10749 -0.65319,-0.58704 -0.198438,-0.40515 -0.223243,-0.93431 -0.04134,-0.71107 0.248047,-1.32292 0.322461,-0.7028 0.93431,-0.92604 0.909505,-0.33073 2.141468,0.3886 0.87644,0.51263 1.50482,1.24024 l 1.08314,-0.92604 q -0.68626,-0.79375 -1.67018,-1.42214 -1.909964,-1.20716 -3.547073,-0.62012 -1.099675,0.40515 -1.670183,1.52136 -0.504361,0.97565 -0.446484,2.14147 0.05788,1.07487 0.587044,1.84382 0.529167,0.76894 1.364258,0.97565 0.487826,0.12402 1.438672,0.2067 l -0.02481,1.25677 h 1.422126 l 0.0248,-1.17409 q 1.27331,0.0579 2.96829,0.0579 l 0.0331,1.11621 z"
         style="stroke-width:0.26458332"
         id="path14"
         inkscape:connector-curvature="0" />
      <path
         d="m 111.6394,134.52378 q -0.0909,0.32247 -0.32246,1.06661 h 5.99447 q -0.0579,-0.19844 -0.1571,-0.52917 -0.11575,-0.39688 -0.16536,-0.53744 z m 4.9196,-1.43867 q -0.0827,-0.26458 -0.0992,-0.32246 -0.0413,-0.13229 -0.28939,-0.95084 -0.17363,-0.57051 -0.28112,-0.94258 -0.0661,-0.20671 -0.19017,-0.62012 -0.12402,-0.41341 -0.19017,-0.62012 -0.0579,-0.1819 -0.091,-0.2067 -0.0413,-0.0248 -0.21497,-0.0165 -0.57051,0.0331 -1.10794,0.0496 H 113.169 q -0.20671,0.7028 -0.54571,1.81901 -0.43821,1.44694 -0.5457,1.81074 z m 3.39824,2.50528 v 1.43867 h -0.71107 q 0.0909,0.28112 0.35554,1.15755 0.21497,0.71107 0.34726,1.14928 -0.0579,0.0165 -0.13229,0.0413 -0.0992,0.0331 -0.12402,0.0413 -0.1819,0.0496 -0.55397,0.16536 -0.36381,0.11576 -0.54571,0.17363 h -0.0248 q -0.23978,-0.80201 -0.3638,-1.19889 -0.0827,-0.28939 -0.23151,-0.76895 -0.16537,-0.5705 -0.22325,-0.76067 h -0.0661 q -4.78731,0 -6.70554,0 -0.091,0 -0.11575,0.091 -0.0661,0.21497 -0.17363,0.55397 -0.13229,0.44648 -0.16537,0.55397 -0.0661,0.20671 -0.45475,1.52962 h -0.0248 q -0.10749,-0.0413 -0.10749,-0.0413 -0.58705,-0.1819 -1.15755,-0.34726 -0.0909,-0.0248 -0.0661,-0.12403 0.0413,-0.11575 0.47956,-1.57923 -0.008,0.0248 0.19017,-0.63665 h -0.7028 v -1.43867 l 1.04179,0.008 q 0.0992,0 0.11576,-0.0744 0.0413,-0.12402 0.30592,-1.00046 h -1.46347 v -1.4304 q 1.46347,0 1.78593,0 0.11576,0 0.14056,-0.0992 0.28112,-0.95911 0.53744,-1.81074 0.0662,-0.19844 0.55397,-1.81901 -1.27331,-0.1571 -1.90169,-0.30592 0.0496,-0.24805 0.28112,-1.38907 1.02526,0.16537 1.07487,0.17364 0.37207,0.0496 0.76067,0.0827 0.88471,0.0827 1.12448,0.091 0.38861,0.008 1.46348,-0.0165 0.35553,-0.008 0.74414,-0.0496 0.65319,-0.0579 0.99219,-0.11575 0.62012,-0.0909 1.28157,-0.22324 0.0496,-0.008 0.80202,-0.20671 h 0.0909 q 0.0662,0.24805 0.19017,0.68626 0.13229,0.4961 0.19017,0.71107 -1.42213,0.29766 -1.81901,0.38034 -0.0909,0.0165 -0.0661,0.0909 0.11576,0.38034 0.66973,2.19935 0.0909,0.31419 0.23978,0.81028 0.20671,0.68627 0.24805,0.81029 h 1.89342 v 1.4304 h -1.46348 q 0.25632,0.8599 0.29766,0.98392 0.0248,0.0909 0.12402,0.0909 z"
         style="stroke-width:0.26458332"
         id="path16"
         inkscape:connector-curvature="0" />
      <path
         d="m 129.50705,130.09201 v -1.42213 h -7.96231 v 1.42213 h 2.27377 v 1.42214 h -1.70326 v 1.42213 h 1.70326 v 2.47221 q 0,2.70371 -0.57878,3.24941 -0.37207,0.35553 -1.14928,0.31419 l -0.0827,1.41387 q 0.10749,0.008 0.22325,0.008 1.2485,0 1.98437,-0.7028 1.02526,-0.96739 1.02526,-4.28294 v -2.47221 h 4.26641 v -1.42213 h -4.26641 v -1.42214 z"
         style="stroke-width:0.26458332"
         id="path18"
         inkscape:connector-curvature="0" />
      <path
         d="m 136.91538,139.61701 q -0.31419,0 -0.60358,-0.0496 -2.91869,-0.44648 -4.40697,-2.32337 -1.30638,-1.64538 -1.0666,-3.67109 0.21498,-1.81901 1.52962,-3.00137 1.46348,-1.31465 3.62149,-1.13275 1.95957,0.1571 4.33255,1.57924 l -0.75241,-2.68718 1.37253,-0.38034 1.44694,5.19245 h -1.48828 l -0.19017,-0.1571 q -0.61185,-0.47128 -1.5627,-1.00045 -1.83555,-1.01699 -3.27422,-1.13275 -1.57096,-0.13229 -2.58795,0.80202 -0.89297,0.81855 -1.03353,2.08359 -0.1819,1.52136 0.83509,2.72025 1.14928,1.35599 3.43958,1.70326 1.61231,0.24804 3.83646,-1.09968 l 0.73587,1.2237 q -2.19935,1.33118 -4.18372,1.33118 z"
         style="stroke-width:0.26458332"
         id="path20"
         inkscape:connector-curvature="0" />
      <path
         d="m 148.90431,138.07085 q -1.13275,0 -1.90169,-0.76894 -0.76068,-0.76895 -0.76068,-1.90169 v -5.57279 h -1.42213 v 6.1681 q 0,1.38079 -0.57878,1.9265 -0.37207,0.35553 -1.14928,0.31419 l -0.0827,1.42213 q 0.11576,0 0.22325,0 1.20716,0 1.9513,-0.70279 0.32246,-0.30593 0.57877,-0.86817 1.2237,1.4056 3.14193,1.4056 h 7.28431 v -1.42214 z m -2.28203,-8.88834 -0.28112,-1.39733 -1.41387,0.28939 0.28112,1.38906 z"
         style="stroke-width:0.26458332"
         id="path22"
         inkscape:connector-curvature="0" />
    </g>
  </g>
</svg>
